<svg width="4400" height="2475" xmlns="http://www.w3.org/2000/svg" xmlns:xlink="http://www.w3.org/1999/xlink" xml:space="preserve" overflow="hidden"><defs><filter id="fx0" x="-10%" y="-10%" width="120%" height="120%" filterUnits="userSpaceOnUse" primitiveUnits="userSpaceOnUse"><feComponentTransfer color-interpolation-filters="sRGB"><feFuncR type="discrete" tableValues="0.65098 0.65098"/><feFuncG type="discrete" tableValues="0.65098 0.65098"/><feFuncB type="discrete" tableValues="0.65098 0.65098"/><feFuncA type="linear" slope="0.4" intercept="0"/></feComponentTransfer><feGaussianBlur stdDeviation="6.11111 6.11111"/></filter><filter id="fx1" x="-10%" y="-10%" width="120%" height="120%" filterUnits="userSpaceOnUse" primitiveUnits="userSpaceOnUse"><feComponentTransfer color-interpolation-filters="sRGB"><feFuncR type="discrete" tableValues="0.65098 0.65098"/><feFuncG type="discrete" tableValues="0.65098 0.65098"/><feFuncB type="discrete" tableValues="0.65098 0.65098"/><feFuncA type="linear" slope="0.4" intercept="0"/></feComponentTransfer><feGaussianBlur stdDeviation="6.11111 6.11111"/></filter><filter id="fx2" x="-10%" y="-10%" width="120%" height="120%" filterUnits="userSpaceOnUse" primitiveUnits="userSpaceOnUse"><feComponentTransfer color-interpolation-filters="sRGB"><feFuncR type="discrete" tableValues="0.65098 0.65098"/><feFuncG type="discrete" tableValues="0.65098 0.65098"/><feFuncB type="discrete" tableValues="0.65098 0.65098"/><feFuncA type="linear" slope="0.4" intercept="0"/></feComponentTransfer><feGaussianBlur stdDeviation="6.11111 6.11111"/></filter><filter id="fx3" x="-10%" y="-10%" width="120%" height="120%" filterUnits="userSpaceOnUse" primitiveUnits="userSpaceOnUse"><feComponentTransfer color-interpolation-filters="sRGB"><feFuncR type="discrete" tableValues="0.65098 0.65098"/><feFuncG type="discrete" tableValues="0.65098 0.65098"/><feFuncB type="discrete" tableValues="0.65098 0.65098"/><feFuncA type="linear" slope="0.4" intercept="0"/></feComponentTransfer><feGaussianBlur stdDeviation="6.11111 6.11111"/></filter><filter id="fx4" x="-10%" y="-10%" width="120%" height="120%" filterUnits="userSpaceOnUse" primitiveUnits="userSpaceOnUse"><feComponentTransfer color-interpolation-filters="sRGB"><feFuncR type="discrete" tableValues="0.65098 0.65098"/><feFuncG type="discrete" tableValues="0.65098 0.65098"/><feFuncB type="discrete" tableValues="0.65098 0.65098"/><feFuncA type="linear" slope="0.4" intercept="0"/></feComponentTransfer><feGaussianBlur stdDeviation="6.11111 6.11111"/></filter><filter id="fx5" x="-10%" y="-10%" width="120%" height="120%" filterUnits="userSpaceOnUse" primitiveUnits="userSpaceOnUse"><feComponentTransfer color-interpolation-filters="sRGB"><feFuncR type="discrete" tableValues="0.65098 0.65098"/><feFuncG type="discrete" tableValues="0.65098 0.65098"/><feFuncB type="discrete" tableValues="0.65098 0.65098"/><feFuncA type="linear" slope="0.4" intercept="0"/></feComponentTransfer><feGaussianBlur stdDeviation="6.11111 6.11111"/></filter><clipPath id="clip6"><rect x="0" y="0" width="4400" height="2475"/></clipPath></defs><g clip-path="url(#clip6)"><rect x="0" y="0" width="4400" height="2475" fill="#F2F2F2"/><path d="M0 17.6937C-4.92345e-15 7.92172 7.92172-4.92345e-15 17.6937-4.92345e-15L642.306 0C652.078-4.92345e-15 660 7.92172 660 17.6937L660 2457.31C660 2467.08 652.078 2475 642.306 2475L17.6937 2475C7.92172 2475-2.46172e-15 2467.08-2.46172e-15 2457.31Z" fill="#00BC12" fill-rule="evenodd"/><g filter="url(#fx0)" transform="translate(700 45)"><g><path d="M19.7225 61.0567C19.7225 38.2286 38.2282 19.7227 61.0562 19.7227L3581.39 19.7227C3604.22 19.7227 3622.72 38.2286 3622.72 61.0567L3622.72 226.389C3622.72 249.217 3604.22 267.723 3581.39 267.723L61.0562 267.723C38.2282 267.723 19.7225 249.217 19.7225 226.389Z" fill="#FFFFFF" fill-rule="evenodd"/></g></g><path d="M710 96.334C710 73.5058 728.505 55 751.333 55L4271.67 55C4294.49 55 4313 73.5058 4313 96.334L4313 261.666C4313 284.494 4294.49 303 4271.67 303L751.333 303C728.505 303 710 284.494 710 261.666Z" fill="#FFFFFF" fill-rule="evenodd"/><g filter="url(#fx1)" transform="translate(700 380)"><g><path d="M19.7225 66.2014C19.7225 40.532 40.5317 19.7229 66.201 19.7229L1086.24 19.7229C1111.91 19.7229 1132.72 40.532 1132.72 66.2014L1132.72 444.244C1132.72 469.914 1111.91 490.723 1086.24 490.723L66.201 490.723C40.5317 490.723 19.7225 469.914 19.7225 444.244Z" fill="#FFFFFF" fill-rule="evenodd"/></g></g><path d="M710 436.479C710 410.809 730.809 390 756.478 390L1776.52 390C1802.19 390 1823 410.809 1823 436.479L1823 814.522C1823 840.191 1802.19 861 1776.52 861L756.478 861C730.809 861 710 840.191 710 814.522Z" fill="#FFFFFF" fill-rule="evenodd"/><g filter="url(#fx2)" transform="translate(1946 380)"><g><path d="M19.7227 66.201C19.7227 40.5318 40.5316 19.7229 66.2007 19.7229L1085.24 19.7229C1110.91 19.7229 1131.72 40.5318 1131.72 66.201L1131.72 444.245C1131.72 469.914 1110.91 490.723 1085.24 490.723L66.2007 490.723C40.5316 490.723 19.7227 469.914 19.7227 444.245Z" fill="#FFFFFF" fill-rule="evenodd"/></g></g><path d="M1956 436.478C1956 410.809 1976.81 390 2002.48 390L3021.52 390C3047.19 390 3068 410.809 3068 436.478L3068 814.522C3068 840.191 3047.19 861 3021.52 861L2002.48 861C1976.81 861 1956 840.191 1956 814.522Z" fill="#FFFFFF" fill-rule="evenodd"/><g filter="url(#fx3)" transform="translate(3191 380)"><g><path d="M19.7227 66.201C19.7227 40.5318 40.5316 19.7229 66.2007 19.7229L1085.24 19.7229C1110.91 19.7229 1131.72 40.5318 1131.72 66.201L1131.72 444.245C1131.72 469.914 1110.91 490.723 1085.24 490.723L66.2007 490.723C40.5316 490.723 19.7227 469.914 19.7227 444.245Z" fill="#FFFFFF" fill-rule="evenodd"/></g></g><path d="M3201 436.478C3201 410.809 3221.81 390 3247.48 390L4266.52 390C4292.19 390 4313 410.809 4313 436.478L4313 814.522C4313 840.191 4292.19 861 4266.52 861L3247.48 861C3221.81 861 3201 840.191 3201 814.522Z" fill="#FFFFFF" fill-rule="evenodd"/><g filter="url(#fx4)" transform="translate(700 950)"><g><path d="M19.7225 88.3036C19.7225 50.4275 50.4272 19.7228 88.3033 19.7228L3554.14 19.7228C3592.02 19.7228 3622.72 50.4275 3622.72 88.3036L3622.72 646.142C3622.72 684.018 3592.02 714.723 3554.14 714.723L88.3033 714.723C50.4272 714.723 19.7225 684.018 19.7225 646.142Z" fill="#FFFFFF" fill-rule="evenodd"/></g></g><path d="M710 1028.58C710 990.705 740.704 960 778.581 960L4244.42 960C4282.3 960 4313 990.705 4313 1028.58L4313 1586.42C4313 1624.3 4282.3 1655 4244.42 1655L778.581 1655C740.704 1655 710 1624.3 710 1586.42Z" fill="#FFFFFF" fill-rule="evenodd"/><g filter="url(#fx5)" transform="translate(719 1757)"><g><path d="M19.7228 84.1603C19.7228 48.5723 48.5724 19.7225 84.1602 19.7225L3557.29 19.7225C3592.87 19.7225 3621.72 48.5723 3621.72 84.1603L3621.72 608.285C3621.72 643.873 3592.87 672.723 3557.29 672.723L84.1602 672.723C48.5724 672.723 19.7228 643.873 19.7228 608.285Z" fill="#FFFFFF" fill-rule="evenodd"/></g></g><path d="M729 1831.44C729 1795.85 757.85 1767 793.438 1767L4266.56 1767C4302.15 1767 4331 1795.85 4331 1831.44L4331 2355.56C4331 2391.15 4302.15 2420 4266.56 2420L793.438 2420C757.85 2420 729 2391.15 729 2355.56Z" fill="#FFFFFF" fill-rule="evenodd"/></g></svg>