<svg width="4400" height="2475" xmlns="http://www.w3.org/2000/svg" xmlns:xlink="http://www.w3.org/1999/xlink" xml:space="preserve" overflow="hidden"><defs><filter id="fx0" x="-10%" y="-10%" width="120%" height="120%" filterUnits="userSpaceOnUse" primitiveUnits="userSpaceOnUse"><feComponentTransfer color-interpolation-filters="sRGB"><feFuncR type="discrete" tableValues="0.65098 0.65098"/><feFuncG type="discrete" tableValues="0.65098 0.65098"/><feFuncB type="discrete" tableValues="0.65098 0.65098"/><feFuncA type="linear" slope="0.4" intercept="0"/></feComponentTransfer><feGaussianBlur stdDeviation="6.11111 6.11111"/></filter><filter id="fx1" x="-10%" y="-10%" width="120%" height="120%" filterUnits="userSpaceOnUse" primitiveUnits="userSpaceOnUse"><feComponentTransfer color-interpolation-filters="sRGB"><feFuncR type="discrete" tableValues="0.65098 0.65098"/><feFuncG type="discrete" tableValues="0.65098 0.65098"/><feFuncB type="discrete" tableValues="0.65098 0.65098"/><feFuncA type="linear" slope="0.4" intercept="0"/></feComponentTransfer><feGaussianBlur stdDeviation="6.11111 6.11111"/></filter><filter id="fx2" x="-10%" y="-10%" width="120%" height="120%" filterUnits="userSpaceOnUse" primitiveUnits="userSpaceOnUse"><feComponentTransfer color-interpolation-filters="sRGB"><feFuncR type="discrete" tableValues="0.65098 0.65098"/><feFuncG type="discrete" tableValues="0.65098 0.65098"/><feFuncB type="discrete" tableValues="0.65098 0.65098"/><feFuncA type="linear" slope="0.4" intercept="0"/></feComponentTransfer><feGaussianBlur stdDeviation="6.11111 6.11111"/></filter><filter id="fx3" x="-10%" y="-10%" width="120%" height="120%" filterUnits="userSpaceOnUse" primitiveUnits="userSpaceOnUse"><feComponentTransfer color-interpolation-filters="sRGB"><feFuncR type="discrete" tableValues="0.65098 0.65098"/><feFuncG type="discrete" tableValues="0.65098 0.65098"/><feFuncB type="discrete" tableValues="0.65098 0.65098"/><feFuncA type="linear" slope="0.4" intercept="0"/></feComponentTransfer><feGaussianBlur stdDeviation="6.11111 6.11111"/></filter><filter id="fx4" x="-10%" y="-10%" width="120%" height="120%" filterUnits="userSpaceOnUse" primitiveUnits="userSpaceOnUse"><feComponentTransfer color-interpolation-filters="sRGB"><feFuncR type="discrete" tableValues="0.65098 0.65098"/><feFuncG type="discrete" tableValues="0.65098 0.65098"/><feFuncB type="discrete" tableValues="0.65098 0.65098"/><feFuncA type="linear" slope="0.4" intercept="0"/></feComponentTransfer><feGaussianBlur stdDeviation="6.11111 6.11111"/></filter><filter id="fx5" x="-10%" y="-10%" width="120%" height="120%" filterUnits="userSpaceOnUse" primitiveUnits="userSpaceOnUse"><feComponentTransfer color-interpolation-filters="sRGB"><feFuncR type="discrete" tableValues="0.65098 0.65098"/><feFuncG type="discrete" tableValues="0.65098 0.65098"/><feFuncB type="discrete" tableValues="0.65098 0.65098"/><feFuncA type="linear" slope="0.4" intercept="0"/></feComponentTransfer><feGaussianBlur stdDeviation="6.11111 6.11111"/></filter><clipPath id="clip6"><rect x="0" y="0" width="4400" height="2475"/></clipPath></defs><g clip-path="url(#clip6)"><rect x="0" y="0" width="4400" height="2475" fill="#F2F2F2"/><path d="M0 17.6937C-4.92345e-15 7.92172 7.92172-4.92345e-15 17.6937-4.92345e-15L642.306 0C652.078-4.92345e-15 660 7.92172 660 17.6937L660 2457.31C660 2467.08 652.078 2475 642.306 2475L17.6937 2475C7.92172 2475-2.46172e-15 2467.08-2.46172e-15 2457.31Z" fill="#00BC12" fill-rule="evenodd"/><g filter="url(#fx0)" transform="translate(700 45)"><g><path d="M19.7225 61.0567C19.7225 38.2286 38.2282 19.7227 61.0562 19.7227L3581.39 19.7227C3604.22 19.7227 3622.72 38.2286 3622.72 61.0567L3622.72 226.389C3622.72 249.217 3604.22 267.723 3581.39 267.723L61.0562 267.723C38.2282 267.723 19.7225 249.217 19.7225 226.389Z" fill="#FFFFFF" fill-rule="evenodd"/></g></g><path d="M710 96.334C710 73.5058 728.505 55 751.333 55L4271.67 55C4294.49 55 4313 73.5058 4313 96.334L4313 261.666C4313 284.494 4294.49 303 4271.67 303L751.333 303C728.505 303 710 284.494 710 261.666Z" fill="#FFFFFF" fill-rule="evenodd"/><g filter="url(#fx1)" transform="translate(700 380)"><g><path d="M19.7225 89.3912C19.7225 50.9145 50.9141 19.7229 89.3909 19.7229L656.054 19.7229C694.531 19.7229 725.723 50.9145 725.723 89.3912L725.723 660.054C725.723 698.531 694.531 729.723 656.054 729.723L89.3909 729.723C50.9141 729.723 19.7225 698.531 19.7225 660.054Z" fill="#FFFFFF" fill-rule="evenodd"/></g></g><path d="M710 459.669C710 421.192 741.191 390 779.668 390L1346.33 390C1384.81 390 1416 421.192 1416 459.669L1416 1030.33C1416 1068.81 1384.81 1100 1346.33 1100L779.668 1100C741.191 1100 710 1068.81 710 1030.33Z" fill="#FFFFFF" fill-rule="evenodd"/><g filter="url(#fx2)" transform="translate(3107 380)"><g><path d="M19.7229 89.7852C19.7229 51.0908 51.0908 19.7229 89.7852 19.7229L1145.66 19.7229C1184.35 19.7229 1215.72 51.0908 1215.72 89.7852L1215.72 659.66C1215.72 698.355 1184.35 729.723 1145.66 729.723L89.7852 729.723C51.0908 729.723 19.7229 698.355 19.7229 659.66Z" fill="#FFFFFF" fill-rule="evenodd"/></g></g><path d="M3117 460.062C3117 421.368 3148.37 390 3187.06 390L4242.94 390C4281.63 390 4313 421.368 4313 460.062L4313 1029.94C4313 1068.63 4281.63 1100 4242.94 1100L3187.06 1100C3148.37 1100 3117 1068.63 3117 1029.94Z" fill="#FFFFFF" fill-rule="evenodd"/><g filter="url(#fx3)" transform="translate(719 1177)"><g><path d="M19.7228 141.397C19.7228 74.1979 74.1981 19.7227 141.397 19.7227L3500.05 19.7227C3567.25 19.7227 3621.72 74.1979 3621.72 141.397L3621.72 1131.05C3621.72 1198.25 3567.25 1252.72 3500.05 1252.72L141.397 1252.72C74.1981 1252.72 19.7228 1198.25 19.7228 1131.05Z" fill="#FFFFFF" fill-rule="evenodd"/></g></g><path d="M729 1308.67C729 1241.48 783.475 1187 850.674 1187L4209.33 1187C4276.52 1187 4331 1241.48 4331 1308.67L4331 2298.33C4331 2365.52 4276.52 2420 4209.33 2420L850.674 2420C783.475 2420 729 2365.52 729 2298.33Z" fill="#FFFFFF" fill-rule="evenodd"/><g filter="url(#fx4)" transform="translate(1493 380)"><g><path d="M19.7225 89.3912C19.7225 50.9145 50.9141 19.7229 89.3909 19.7229L656.054 19.7229C694.531 19.7229 725.723 50.9145 725.723 89.3912L725.723 660.054C725.723 698.531 694.531 729.723 656.054 729.723L89.3909 729.723C50.9141 729.723 19.7225 698.531 19.7225 660.054Z" fill="#FFFFFF" fill-rule="evenodd"/></g></g><path d="M1503 459.669C1503 421.192 1534.19 390 1572.67 390L2139.33 390C2177.81 390 2209 421.192 2209 459.669L2209 1030.33C2209 1068.81 2177.81 1100 2139.33 1100L1572.67 1100C1534.19 1100 1503 1068.81 1503 1030.33Z" fill="#FFFFFF" fill-rule="evenodd"/><g filter="url(#fx5)" transform="translate(2286 380)"><g><path d="M19.7227 89.7853C19.7227 51.0909 51.0906 19.7229 89.785 19.7229L683.661 19.7229C722.355 19.7229 753.723 51.0909 753.723 89.7853L753.723 659.66C753.723 698.355 722.355 729.723 683.661 729.723L89.785 729.723C51.0906 729.723 19.7227 698.355 19.7227 659.66Z" fill="#FFFFFF" fill-rule="evenodd"/></g></g><path d="M2296 460.063C2296 421.368 2327.37 390 2366.06 390L2959.94 390C2998.63 390 3030 421.368 3030 460.063L3030 1029.94C3030 1068.63 2998.63 1100 2959.94 1100L2366.06 1100C2327.37 1100 2296 1068.63 2296 1029.94Z" fill="#FFFFFF" fill-rule="evenodd"/></g></svg>