<svg width="4400" height="2475" xmlns="http://www.w3.org/2000/svg" xmlns:xlink="http://www.w3.org/1999/xlink" xml:space="preserve" overflow="hidden"><defs><filter id="fx0" x="-10%" y="-10%" width="120%" height="120%" filterUnits="userSpaceOnUse" primitiveUnits="userSpaceOnUse"><feComponentTransfer color-interpolation-filters="sRGB"><feFuncR type="discrete" tableValues="0.65098 0.65098"/><feFuncG type="discrete" tableValues="0.65098 0.65098"/><feFuncB type="discrete" tableValues="0.65098 0.65098"/><feFuncA type="linear" slope="0.4" intercept="0"/></feComponentTransfer><feGaussianBlur stdDeviation="6.11111 6.11111"/></filter><filter id="fx1" x="-10%" y="-10%" width="120%" height="120%" filterUnits="userSpaceOnUse" primitiveUnits="userSpaceOnUse"><feComponentTransfer color-interpolation-filters="sRGB"><feFuncR type="discrete" tableValues="0.65098 0.65098"/><feFuncG type="discrete" tableValues="0.65098 0.65098"/><feFuncB type="discrete" tableValues="0.65098 0.65098"/><feFuncA type="linear" slope="0.4" intercept="0"/></feComponentTransfer><feGaussianBlur stdDeviation="6.11111 6.11111"/></filter><clipPath id="clip2"><rect x="0" y="0" width="4400" height="2475"/></clipPath></defs><g clip-path="url(#clip2)"><rect x="0" y="0" width="4400" height="2475" fill="#F2F2F2"/><path d="M0 17.6937C-4.92345e-15 7.92172 7.92172-4.92345e-15 17.6937-4.92345e-15L642.306 0C652.078-4.92345e-15 660 7.92172 660 17.6937L660 2457.31C660 2467.08 652.078 2475 642.306 2475L17.6937 2475C7.92172 2475-2.46172e-15 2467.08-2.46172e-15 2457.31Z" fill="#00BC12" fill-rule="evenodd"/><g filter="url(#fx0)" transform="translate(700 45)"><g><path d="M19.7225 61.0567C19.7225 38.2286 38.2282 19.7227 61.0562 19.7227L3581.39 19.7227C3604.22 19.7227 3622.72 38.2286 3622.72 61.0567L3622.72 226.389C3622.72 249.217 3604.22 267.723 3581.39 267.723L61.0562 267.723C38.2282 267.723 19.7225 249.217 19.7225 226.389Z" fill="#FFFFFF" fill-rule="evenodd"/></g></g><path d="M710 96.334C710 73.5058 728.505 55 751.333 55L4271.67 55C4294.49 55 4313 73.5058 4313 96.334L4313 261.666C4313 284.494 4294.49 303 4271.67 303L751.333 303C728.505 303 710 284.494 710 261.666Z" fill="#FFFFFF" fill-rule="evenodd"/><g filter="url(#fx1)" transform="translate(719 407)"><g><path d="M19.7228 93.6339C19.7228 52.8139 52.814 19.7227 93.6339 19.7227L3547.81 19.7227C3588.63 19.7227 3621.72 52.8139 3621.72 93.6339L3621.72 1948.81C3621.72 1989.63 3588.63 2022.72 3547.81 2022.72L93.6339 2022.72C52.814 2022.72 19.7228 1989.63 19.7228 1948.81Z" fill="#FFFFFF" fill-rule="evenodd"/></g></g><path d="M729 490.911C729 450.091 762.091 417 802.911 417L4257.09 417C4297.91 417 4331 450.091 4331 490.911L4331 2346.09C4331 2386.91 4297.91 2420 4257.09 2420L802.911 2420C762.091 2420 729 2386.91 729 2346.09Z" fill="#FFFFFF" fill-rule="evenodd"/></g></svg>